# xmcd CD database file
#
# Track frame offsets:
#	150
#	54848
#	108705
#	163705
#
# Disc length: 2894 seconds
#
# Revision: 0
# Processed by: cddbd v1.4PL0 Copyright (c) Steve Scherf et al.
# Submitted via: CDex 1.50beta10
#
DISCID=2c0b4c04
DTITLE=Living Well - Rhythmic Tide
DYEAR=1996
DGENRE=New Age
TTITLE0=Rhythmic Tide 01
TTITLE1=Rhythmic Tide 02
TTITLE2=Rhythmic Tide 03
TTITLE3=Rhythmic Tide 04
EXTD=YEAR: 1996
EXTT0=
EXTT1=
EXTT2=
EXTT3=
PLAYORDER=
